<?xml version="1.0" encoding="UTF-8" standalone="no"?>
<svg
   id="Layer_5"
   data-name="Layer 5"
   viewBox="0 0 2048.0001 2047.9999"
   version="1.1"
   sodipodi:docname="yom-flag.svg"
   width="2048"
   height="2048"
   inkscape:version="1.2.1 (9c6d41e410, 2022-07-14)"
   xmlns:inkscape="http://www.inkscape.org/namespaces/inkscape"
   xmlns:sodipodi="http://sodipodi.sourceforge.net/DTD/sodipodi-0.dtd"
   xmlns="http://www.w3.org/2000/svg"
   xmlns:svg="http://www.w3.org/2000/svg">
  <sodipodi:namedview
     id="namedview105"
     pagecolor="#ffffff"
     bordercolor="#000000"
     borderopacity="0.25"
     inkscape:showpageshadow="2"
     inkscape:pageopacity="0.0"
     inkscape:pagecheckerboard="0"
     inkscape:deskcolor="#d1d1d1"
     showgrid="true"
     inkscape:zoom="0.5"
     inkscape:cx="1077"
     inkscape:cy="992"
     inkscape:window-width="3440"
     inkscape:window-height="1417"
     inkscape:window-x="-8"
     inkscape:window-y="-8"
     inkscape:window-maximized="1"
     inkscape:current-layer="Layer_5">
    <inkscape:grid
       type="xygrid"
       id="grid943"
       dotted="false"
       snapvisiblegridlinesonly="true"
       spacingx="1"
       spacingy="1"
       empspacing="10"
       visible="true" />
  </sodipodi:namedview>
  <defs
     id="defs74">
    <style
       id="style72">.cls-1{fill:#e2e2e2;}.cls-2{fill:#f0efef;}.cls-3{fill:#50ba6c;}.cls-4{fill:#161616;}.cls-5{fill:#af499b;}.cls-6{fill:#fff;}</style>
  </defs>
  <g
     id="g1070"
     transform="translate(18.065,-23.170021)">
    <path
       class="cls-1"
       d="m 118.75,1195.13 c 1.88,-0.49 3.77,-1 5.65,-1.39 -1.89,0.43 -3.77,0.9 -5.65,1.39 z m -15.07,176.78 c 25.31,-33 61.73,-68.8 108.44,-90.39 -46.78,21.55 -83.12,57.4 -108.44,90.39 z m 0,0 q -2.12,2.75 -4.11,5.46 2.01,-2.7 4.11,-5.45 z m 110.4,-181.64 q -4.66,-0.78 -9.37,-1.35 c 3.13,0.39 6.29,0.84 9.37,1.36 z m -46.93,-2.63 a 222.82,222.82 0 0 1 32.82,0.76 221.45,221.45 0 0 0 -32.82,-0.75 z m -2.86,0.16 q -7,0.44 -14,1.29 7.03,-0.85 14,-1.28 z m 25,205.32 q 2,-2 4,-3.91 c -1.36,1.28 -2.69,2.59 -4.03,3.92 z m 14,-13 c 2,-1.7 4,-3.34 5.95,-4.93 -1.98,1.6 -3.97,3.24 -5.95,4.95 z m 6,-4.95 q 3.72,-3 7.4,-5.65 -3.69,2.71 -7.42,5.67 z M 232.9,1359 q 2,-1.11 3.87,-2.15 c -1.29,0.7 -2.58,1.41 -3.87,2.15 z m 7.84,-4.2 c 1.94,-1 3.86,-1.87 5.79,-2.73 -1.93,0.86 -3.85,1.77 -5.79,2.74 z M 239.7,1114 c 2.12,0.46 4.24,0.94 6.34,1.45 -2.11,-0.55 -4.22,-1.04 -6.34,-1.45 z m 6.36,1.45 c 2.11,0.51 4.2,1.05 6.29,1.61 -2.09,-0.61 -4.19,-1.14 -6.29,-1.65 z m 21.94,92.02 q 2.5,1.23 5,2.53 c -1.7,-0.87 -3.35,-1.72 -5,-2.53 z M 363.32,1180 q -4.34,-3.66 -9,-7.29 4.68,3.67 9,7.29 z m -91.67,-56.94 c 29.9,11.69 58.46,31.72 79.57,47.23 -21.09,-15.49 -49.67,-35.56 -79.57,-47.21 z m 74.69,-370.64 q 3,-1 6.06,-2.1 -3.03,1.12 -6.06,2.12 z m -57.7,7.48 c 16.63,1.48 33.12,-0.46 49.59,-5 -16.47,4.55 -32.96,6.49 -49.59,5.02 z m 76,-14.44 q 2.93,-1.26 5.85,-2.62 -2.95,1.37 -5.87,2.64 z m 8.11,-3.67 c 2.21,-1 4.4,-2.12 6.61,-3.24 q -3.36,1.7 -6.63,3.26 z m 18.71,465.08 c 1.38,1.51 2.73,3 4.07,4.55 -1.35,-1.5 -2.7,-3.02 -4.09,-4.53 z m 9.86,11.42 c 1.86,2.3 3.67,4.59 5.43,6.9 q -2.64,-3.43 -5.45,-6.88 z m 3.37,159.5 q 4.43,2.7 8.85,5.54 -4.44,-2.83 -8.87,-5.52 z m 6.34,195 c -123.71,-11.51 -239.5,-69 -347.13,-133.76 177.63,104.79 271.34,139.92 415,133.76 z m 12.86,-321.89 q 2.07,3.54 4,7.09 -1.89,-3.56 -4.02,-7.1 z m 1.66,140.34 c 8.77,5.9 17.6,12.11 26.5,18.52 -8.92,-6.43 -17.75,-12.64 -26.52,-18.53 z m 33.1,-54.83 q 2.11,7.14 4.18,14.38 -2.07,-7.25 -4.2,-14.39 z m -2.75,76.14 c 4.07,3 8.17,6 12.28,9 -4.13,-3.07 -8.18,-6.07 -12.3,-9.01 z m 60.38,-494.2 C 536.61,837.27 576.59,761.19 636.2,699.78 576.46,761.19 536.52,837.27 516.26,918.34 Z m 89.1,277.6 A 431.59,431.59 0 0 1 584,1115.47 418.19,418.19 0 0 0 609.17,1206 q -1.98,-5 -3.81,-10.06 z M 584,977.38 A 443.22,443.22 0 0 1 606.43,893.77 419.19,419.19 0 0 0 584,977.38 Z m 63.62,426.72 a 457.75,457.75 0 0 1 -71.11,-87.38 457.21,457.21 0 0 0 79.13,95.28 q -4.06,-3.9 -8.06,-7.9 z m 22.64,94.63 c 58.47,-40.21 104.64,-85.58 151.47,-106.48 -48.52,20.75 -95.83,66.28 -151.51,106.48 z m 44.11,-764.49 -0.16,-0.12 c 21.17,17.49 44.36,32.72 69.33,44.16 v 0 c -24.29,-11.8 -47.08,-27.34 -69.21,-44.04 z M 776,1325.59 a 281.43,281.43 0 0 0 -57.19,37 v 0 c 22.58,-16.7 46,-32 70.93,-43.1 q -6.95,2.81 -13.74,6.1 z m 101.65,-23.48 c 2.12,0 4.24,0.1 6.36,0.2 q -3.21,-0.15 -6.39,-0.2 z m -17.5,0.48 q 8.75,-0.62 17.49,-0.48 -8.79,-0.11 -17.52,0.48 z m 27.06,-0.1 c 2.06,0.14 4.11,0.3 6.17,0.49 q -3.1,-0.3 -6.2,-0.49 z m 13.49,82.07 c 31.11,8.72 65.07,32.32 104.73,77.39 -38.68,-45.46 -72.88,-68.95 -104.76,-77.39 z m 54.86,-602.42 c 0.88,-0.39 1.76,-0.8 2.65,-1.22 z M 1005.4,1462 c 39.88,-45.36 74,-69 105.29,-77.54 -32.05,8.23 -66.41,31.76 -105.29,77.54 z m 100.71,-665.12 c -15.68,-2.55 -30.67,-8.26 -45.78,-13.83 a 192.62,192.62 0 0 0 45.86,13.86 z m 76.07,-2.17 c 1.71,-0.38 3.42,-0.77 5.13,-1.2 q -2.55,0.58 -5.13,1.15 z m 45.82,-15.31 0.43,-0.19 v 0 z m 64,583.15 a 275.35,275.35 0 0 0 -70.93,-43.09 c 25,11.13 48.46,26.49 71.09,43.22 z m 5.83,-627 c -22.17,16.66 -45.06,32.08 -69.47,43.66 25,-11.13 48.44,-26.39 69.63,-43.78 z m -112.9,655 c 47.81,19.82 94.56,65.93 153.94,107 -56.53,-41.1 -104.48,-87.4 -153.87,-107.04 z M 1298,735.41 a 430.16,430.16 0 0 1 56.77,65.28 c 0,0 0,0 0,0 2.61,3.69 5.13,7.43 7.64,11.19 v 0 c 3.14,4.74 6.14,9.56 9.1,14.41 A 415.88,415.88 0 0 0 1298,735.41 Z m 74.38,92.37 c 0.26,0.43 0.5,0.86 0.76,1.27 z m 0.88,1.48 c 0.34,0.61 0.7,1.19 1.06,1.79 z m 2.15,3.7 0.3,0.51 q -0.39,-0.71 -0.81,-1.41 z m 54,162.43 c 0.2,1.68 0.41,3.36 0.59,5 -0.17,-1.64 -0.37,-3.32 -0.58,-5 z m -3.81,-25.45 q -0.51,-2.87 -1,-5.72 c 0.33,1.9 0.67,3.78 1.01,5.72 z m 0,0 c 1.52,8.44 2.75,16.94 3.81,25.45 q -1.49,-12.79 -3.8,-25.45 z m 6.27,99.47 a 430.15,430.15 0 0 1 -58.53,193.83 426,426 0 0 0 58.84,-200.12 c -0.07,2.1 -0.18,4.19 -0.3,6.29 z m -60.71,197.49 -0.24,0.42 c 0.81,-1.35 1.64,-2.72 2.43,-4.08 -0.73,1.22 -1.46,2.45 -2.19,3.66 z m 151.21,-603.21 c 24.4,18 48.09,35.73 71.38,51 -24.57,-17.54 -47.75,-36.69 -71.38,-51 z m 7.31,767.4 c 27.47,-20.22 53.93,-39.72 80,-55.4 -26.14,15.67 -52.63,35.18 -80,55.4 z M 1559,781.91 c 16.43,50.88 39.18,98.33 95,143.43 -41.14,-38.26 -72.24,-89.05 -95,-143.43 z m 116.24,482.62 c 36.16,-5.71 69,-2.19 98.29,7.18 a 209.41,209.41 0 0 0 -98.3,-7.18 z m 81.76,84.54 c 26.16,10 52.92,29.47 80.85,61.54 C 1810,1378.48 1783.2,1359 1757,1349.07 Z M 1714.7,760 c -3.51,0.13 -7,0.13 -10.41,0 30.5,2.34 61.3,-5.82 93.18,-29.56 -22.15,15.84 -49.86,28.36 -82.77,29.56 z m 42.89,440.7 q -7.65,3.09 -14.74,6.75 c 47.61,-23.42 104.3,-25.92 158.1,-9.84 -48.31,-15.06 -98.62,-15.03 -143.36,3.09 z m 167.23,196.41 a 267,267 0 0 1 20.55,38 c -3.87,-9.31 -10.76,-22.71 -20.55,-38 z m -5.47,58.4 c -117.29,68 -248.76,126.57 -387.07,117.27 143.41,6.16 237.29,-29 414.66,-133.76 q -13.77,8.42 -27.59,16.49 z M 1944.43,973 a 404.79,404.79 0 0 1 -67.94,17.24 c 45.78,-6.54 90.85,-22.88 129.53,-47.49 A 351.26,351.26 0 0 1 1944.43,973 Z"
       id="path76" />
    <path
       class="cls-2"
       d="m 1797.47,730.45 c -99.23,75.75 -195,-7.64 -275.1,-66.76 30.2,96.86 55.38,194.25 131.6,261.67 94.67,87 243.52,86.92 352,17.39 v -98.39 c -98.33,91 -253,97 -329.25,-7.59 161.34,25.54 256.17,-133.12 271.71,-174.49 -663.42,-415.7 -669.75,285.88 -941.52,-22.94 -271.33,308.71 -278.78,-392.71 -941.49,22.94 15.18,41 110.75,200.26 271.71,174.49 -77,105.44 -232.88,98.4 -331.25,5.8 v 98.94 A 338.73,338.73 0 0 0 52,966 c 68.65,30 148.71,37.56 220,12.57 35.44,-13.58 68.82,-38 91.93,-56.49 v 0 c 85.38,-66.36 94.07,-166.4 127.58,-258.36 -7.29,5.38 -14.53,10.75 -21.81,16.09 -41,29.6 -82.43,60.91 -131.49,75.11 -40.37,12.27 -83.92,3.44 -117.55,-21.37 -3.38,-2.38 -6.59,-4.79 -9.9,-7.43 a 277.62,277.62 0 0 1 -36.24,-35.4 C 331.11,605.65 507.17,557.18 651.36,684.87 448.8,872.64 451.36,1226.95 655.62,1412 513.15,1530.22 379,1517.58 173,1410.61 a 276.74,276.74 0 0 1 36.27,-35.42 c 3.31,-2.63 6.52,-5.06 9.9,-7.43 29.58,-21.53 67.15,-31.88 103.35,-24.61 v 0 c 50.08,9.78 92.37,40.27 133.3,69.36 4.08,3 8.22,6 12.33,9 7.28,5.34 14.52,10.71 21.81,16.09 -7.49,-19.6 -13.65,-39.52 -19.42,-59.6 -7.89,-27.32 -15.07,-54.81 -25.15,-81.41 a 305.23,305.23 0 0 0 -21.55,-45.71 v 0 q -4.9,-8.39 -10.43,-16.39 v 0 c -34.36,-48.54 -75.81,-77.75 -130.56,-107 -88.47,-36.51 -195.23,-20.14 -277,31.35 v 98.52 a 268.4,268.4 0 0 1 39.17,-30.17 v 0 C 90.75,1198.26 146,1183.11 200,1188.41 v 0 c 53.38,4.74 104.34,32.3 135.61,76.12 -92.61,-17.8 -183.33,40.57 -231.93,107.38 0,0 0,0 0,0 q -2.1,2.75 -4.11,5.46 c 0,0 0,0 0,0 -13.7,18.48 -28.57,42.92 -35.69,61.63 657.6,413.13 672.46,-284.54 941.52,22.93 270.77,-308.87 278,390.41 941.54,-22.93 -42.75,-99 -150,-196.06 -271.71,-174.49 78.24,-109.47 240.18,-94.18 330.79,-6.22 v -98.8 c -75.08,-47.82 -172.32,-65.91 -257.68,-39.54 -65.13,25.29 -114.53,63.76 -152.56,116.84 v 0 c -12.56,18.56 -22.5,39 -30.37,59.77 -0.63,1.62 -1.23,3.28 -1.83,4.92 -16.2,44.81 -25.45,91.4 -42.74,136.1 104,-80.62 213.25,-154.48 317,-27 -157.51,83.92 -329.13,137.08 -482.65,1.36 204.4,-186.93 207.14,-535.73 5.6,-725.79 144.85,-128.67 319.54,-81.79 478.59,4.51 a 220.34,220.34 0 0 1 -41.91,39.79 z m -425.95,95.87 c 0.93,1.58 1.88,3.15 2.81,4.73 v 0 c 101.67,169 66.24,401.28 -82.15,531.62 -46.21,-35.52 -99.82,-62.26 -159,-60.57 -47.12,0.57 -91.82,18.68 -127.8,49.54 C 918,1276 804,1293.33 718.79,1362.56 v 0 l -0.16,0.13 a 397.46,397.46 0 0 1 -79.32,-95.22 v 0 a 434.42,434.42 0 0 1 -55.32,-152 423.53,423.53 0 0 0 19.58,75.4 442.13,442.13 0 0 1 -2.46,-282 423.46,423.46 0 0 0 -17.11,68.51 c 15.55,-93 58.53,-178.45 130.21,-243.26 22.17,16.74 45,32.34 69.37,44.13 v 0 C 857,814.22 945,803.56 1007,749.65 a 241.78,241.78 0 0 0 29.84,21.16 v 0 c 21.21,12.79 45.35,21.37 69.39,26.06 41.32,7.16 84.19,-0.43 122.2,-17.67 v 0 c 24.46,-11.6 47.42,-27.08 69.63,-43.78 a 415.88,415.88 0 0 1 73.46,90.9 z"
       id="path78" />
    <path
       class="cls-3"
       d="m 2006,519.91 v 324.45 c -98.33,91 -253,97 -329.25,-7.59 161.34,25.54 256.17,-133.12 271.71,-174.49 -663.42,-415.7 -669.75,285.88 -941.52,-22.94 -271.36,308.71 -278.81,-392.71 -941.52,22.94 15.18,41 110.75,200.26 271.71,174.49 -77,105.44 -232.88,98.4 -331.25,5.8 V 519.91 Z"
       id="path80" />
    <path
       class="cls-4"
       d="m 407.89,1572.5 c -120.8,-11.6 -238.88,-69.78 -344,-133.48 7.06,-18.66 22,-43.17 35.69,-61.63 0,0 0,0 0,0 q 2,-2.71 4.11,-5.46 c 0,0 0,0 0,0 48.61,-66.8 139.31,-125.29 231.9,-107.4 -31.28,-43.82 -82.23,-71.37 -135.61,-76.12 v 0 c -54,-5.3 -109.22,9.85 -154.91,38.77 v 0 A 268.4,268.4 0 0 0 5.9,1257.35 v 315.43 H 411 c -1,-0.08 -2.07,-0.17 -3.11,-0.28 z M 647.58,1404.1 C 450.52,1217.36 452,869.84 651.38,684.84 507.2,557.15 331.12,605.63 174.54,690.69 a 278.26,278.26 0 0 0 36.24,35.4 c 3.31,2.63 6.52,5.06 9.9,7.43 33.63,24.8 77.18,33.64 117.55,21.37 49.06,-14.19 90.51,-45.52 131.49,-75.11 q 10.92,-8 21.81,-16.09 C 458,755.61 449.31,855.73 364,922.05 v 0 c -23.09,18.52 -56.51,43 -91.93,56.49 C 200.69,1003.53 120.63,996 52,966 A 338.73,338.73 0 0 1 5.9,941.54 v 217.29 c 81.77,-51.49 188.53,-67.86 277,-31.35 54.72,29.23 96.22,58.48 130.56,107 v 0 q 5.53,8 10.43,16.39 v 0 a 305.23,305.23 0 0 1 21.55,45.71 c 10.08,26.6 17.26,54.09 25.15,81.41 5.77,20.07 11.93,40 19.42,59.6 q -10.92,-8.05 -21.81,-16.09 c -4.11,-3 -8.25,-6 -12.33,-9 -40.92,-29.09 -83.23,-59.58 -133.3,-69.36 v 0 c -36.21,-7.26 -73.77,3.08 -103.35,24.61 -3.38,2.37 -6.59,4.8 -9.9,7.43 A 276.74,276.74 0 0 0 173,1410.61 c 206,107 340.15,119.61 482.64,1.36 q -4.06,-3.87 -8.06,-7.87 z M 1944.43,973 c -102,40 -224.49,21.06 -290.46,-47.64 -70.56,-65.68 -111.48,-168.17 -131.6,-261.67 105.15,81.35 213.09,154.06 317,27 -159.06,-86.3 -333.74,-133.17 -478.59,-4.51 201.54,190.06 198.8,538.86 -5.6,725.79 153.57,135.74 325.13,82.54 482.65,-1.36 -103.67,-127.44 -213.15,-53.51 -317,27 17.29,-44.7 26.54,-91.29 42.74,-136.1 0.59,-1.64 1.19,-3.3 1.83,-4.92 7.87,-20.81 17.8,-41.22 30.37,-59.77 v 0 c 37.79,-52.82 87.68,-91.82 152.57,-116.82 85.36,-26.37 182.6,-8.28 257.68,39.54 V 942.75 A 351.26,351.26 0 0 1 1944.43,973 Z m -511.94,68.86 c -1.17,-114.93 -49.87,-228 -134.48,-306.45 -73,62 -175.71,88.62 -261.2,35.4 v 0 A 241.78,241.78 0 0 1 1007,749.65 C 916.59,827 800.13,807.49 714.21,734.12 565.89,866.27 538.34,1099.91 639.3,1267.46 v 0 a 397.46,397.46 0 0 0 79.32,95.22 l 0.16,-0.13 v 0 c 81.68,-70 202.17,-85.45 286.62,-10.9 36,-30.85 80.69,-49 127.8,-49.54 30.11,-0.5 60.09,5.9 87.89,17.34 v 0 a 275.7,275.7 0 0 1 71.09,43.22 c 89.82,-80.47 142.17,-200.22 140.31,-320.81 z M 1901,1197.63 c -81.45,-28.22 -176.83,-1.16 -225.79,66.9 121.79,-21.53 229.01,75.41 271.73,174.47 -106.55,64.07 -221.9,122.12 -347.14,133.76 H 2006 v -314.45 c -31.43,-28.31 -67.61,-49.02 -105,-60.68 z"
       id="path82" />
    <path
       class="cls-5"
       d="M 411,1572.78 H 5.88 v -315.43 a 268.4,268.4 0 0 1 39.17,-30.17 v 0 C 90.75,1198.26 146,1183.12 200,1188.41 v 0 c 53.38,4.75 104.34,32.3 135.61,76.12 -92.61,-17.78 -183.44,40.52 -231.93,107.38 0,0 0,0 0,0 q -2.12,2.75 -4.11,5.46 c 0,0 0,0 0,0 C 85.87,1395.85 71,1420.29 63.88,1439 171.37,1503.75 287,1561.35 411,1572.78 Z"
       id="path84" />
    <path
       class="cls-5"
       d="m 484.54,1572.78 a 410.41,410.41 0 0 1 -73.53,0 z"
       id="path86" />
    <path
       class="cls-5"
       d="M 1526.27,1572.78 H 484.54 C 700.3,1575.86 818.27,1231 1005.4,1462 c 187.6,-231 303.99,113.35 520.87,110.78 z"
       id="path88" />
    <path
       class="cls-5"
       d="m 1599.8,1572.78 a 411.35,411.35 0 0 1 -73.53,0 z"
       id="path90" />
    <path
       class="cls-5"
       d="m 2006,1258.31 v 314.47 h -406.2 c 125.25,-11.64 240.58,-69.69 347.14,-133.76 -42.68,-99 -150.06,-196.16 -271.71,-174.49 77.59,-108.53 240.54,-94.07 330.77,-6.22 z"
       id="path92" />
    <path
       class="cls-6"
       d="m 1526.27,1572.78 a 411.34,411.34 0 0 0 73.53,0 z m 0,0 a 411.34,411.34 0 0 0 73.53,0 z m -1115.26,0 a 410.41,410.41 0 0 0 73.53,0 z m 1115.26,0 a 411.34,411.34 0 0 0 73.53,0 z m -1115.26,0 a 410.41,410.41 0 0 0 73.53,0 z m 1115.26,0 a 411.34,411.34 0 0 0 73.53,0 z m 0,0 a 411.34,411.34 0 0 0 73.53,0 z m -1115.26,0 a 410.41,410.41 0 0 0 73.53,0 z m 1115.26,0 a 411.34,411.34 0 0 0 73.53,0 z m 0,0 a 411.34,411.34 0 0 0 73.53,0 z"
       id="path94" />
    <path
       class="cls-6"
       d="m 1424.56,964.22 a 423.21,423.21 0 0 0 -50.23,-133.16 v 0 c -3.81,-6.47 -7.77,-12.87 -11.91,-19.14 v 0 c -2.51,-3.77 -5,-7.5 -7.64,-11.19 0,0 0,0 0,0 A 430.16,430.16 0 0 0 1298,735.41 l -0.16,0.12 c 69.25,64.73 116.55,154.11 130.09,248.86 -0.93,-6.76 -2.09,-13.49 -3.37,-20.17 z m -18.42,229.65 A 428.22,428.22 0 0 1 1292,1362.56 l 0.17,0.12 c 68.56,-61.85 116.34,-146.42 132.91,-237.32 a 422.51,422.51 0 0 1 -18.94,68.51 z m -692,-459.75 C 644.55,799 598.89,884.36 584,977.38 c 14.87,-93 62.28,-180 130.37,-243.14 z M 603.58,1190.91 A 422.08,422.08 0 0 1 584,1115.47 c 15.22,94.95 62.79,182.09 134.64,247.22 l 0.16,-0.13 v 0 A 428.2,428.2 0 0 1 603.58,1190.91 Z"
       id="path96" />
    <path
       class="cls-3"
       d="m 1432.09,1029.38 a 425.06,425.06 0 0 0 -69.67,-217.47 v 0 q -3.74,-5.65 -7.64,-11.19 c 0,0 0,0 0,0 A 426,426 0 0 0 1298,735.41 c -22.21,16.7 -45.17,32.18 -69.63,43.78 v 0 c 168.18,133.17 164.32,411.64 -7.31,540.24 v 0 c 25,11.13 48.46,26.49 71.09,43.22 93.21,-83.39 145.57,-208.54 139.94,-333.27 z m -672.76,263 C 615.05,1154.7 627.14,901.81 783.54,778.25 759.19,766.46 736.34,750.86 714.17,734.12 565.89,866.27 538.34,1099.91 639.3,1267.46 v 0 a 397.46,397.46 0 0 0 79.32,95.22 l 0.16,-0.13 v 0 c 22.58,-16.7 46,-32 70.93,-43.1 a 352.22,352.22 0 0 1 -30.38,-27.07 z"
       id="path98" />
    <path
       class="cls-5"
       d="m 1195.6,856.18 a 268.32,268.32 0 0 0 -89.4,-59.31 c -15.7,-2.6 -30.74,-8.28 -45.89,-13.87 -36.49,-6.58 -78.76,-9.93 -113.81,3 -195.68,38.59 -286.94,295.87 -131.3,450.53 258.98,243.77 624.23,-121.48 380.4,-380.35 z m -55.87,324.47 C 956.82,1352.84 698.88,1094.86 871.07,912 1054,739.86 1311.94,997.85 1139.73,1180.65 Z"
       id="path100" />
    <path
       class="cls-3"
       d="M 1083.86,967.91 C 977,867.33 826.37,1018 926.94,1124.79 c 106.84,100.56 257.5,-50.1 156.92,-156.88 z m -55.87,101 c -30.36,29.27 -74.46,-14.8 -45.18,-45.16 30.36,-29.28 74.47,14.84 45.19,45.18 z"
       id="path102" />
  </g>
</svg>
