<svg id="Layer_5" data-name="Layer 5" xmlns="http://www.w3.org/2000/svg" viewBox="0 0 2509.16 1364.3"><defs><style>.cls-1{fill:#e2e2e2;}.cls-2{fill:#f0efef;}.cls-3{fill:#50ba6c;}.cls-4{fill:#161616;}.cls-5{fill:#af499b;}.cls-6{fill:#fff;}</style></defs><path class="cls-1" d="M366.75,826.13c1.88-.49,3.77-1,5.65-1.39C370.51,825.17,368.63,825.64,366.75,826.13Zm-15.07,176.78c25.31-33,61.73-68.8,108.44-90.39C413.34,934.07,377,969.92,351.68,1002.91Zm0,0q-2.12,2.75-4.11,5.46Q349.58,1005.67,351.68,1002.92Zm110.4-181.64q-4.66-.78-9.37-1.35C455.84,820.31,459,820.76,462.08,821.28Zm-46.93-2.63a222.82,222.82,0,0,1,32.82.76A221.45,221.45,0,0,0,415.15,818.65Zm-2.86.16q-7,.44-14,1.29Q405.32,819.24,412.29,818.81Zm25,205.32q2-2,4-3.91C439.93,1021.49,438.6,1022.8,437.26,1024.13Zm14-13c2-1.7,4-3.34,5.95-4.93C455.26,1007.79,453.27,1009.43,451.29,1011.14Zm6-4.95q3.72-3,7.4-5.65Q461,1003.23,457.27,1006.19ZM480.9,990q2-1.11,3.87-2.15C483.48,988.55,482.19,989.26,480.9,990Zm7.84-4.2c1.94-1,3.86-1.87,5.79-2.73C492.6,983.93,490.68,984.84,488.74,985.81ZM487.7,745c2.12.46,4.24.94,6.34,1.45C491.93,745.9,489.82,745.41,487.7,745Zm6.36,1.45c2.11.51,4.2,1.05,6.29,1.61C498.26,747.45,496.16,746.92,494.06,746.41ZM516,838.47q2.5,1.23,5,2.53C519.3,840.13,517.65,839.28,516,838.47ZM611.32,811q-4.34-3.66-9-7.29Q607,807.38,611.32,811Zm-91.67-56.94c29.9,11.69,58.46,31.72,79.57,47.23C578.13,785.8,549.55,765.73,519.65,754.08Zm74.69-370.64q3-1,6.06-2.1Q597.37,382.44,594.34,383.44Zm-57.7,7.48c16.63,1.48,33.12-.46,49.59-5C569.76,390.45,553.27,392.39,536.64,390.92Zm76-14.44q2.93-1.26,5.85-2.62Q615.54,375.21,612.62,376.48Zm8.11-3.67c2.21-1,4.4-2.12,6.61-3.24Q624,371.25,620.73,372.81Zm18.71,465.08c1.38,1.51,2.73,3,4.07,4.55C642.18,840.92,640.83,839.4,639.44,837.89Zm9.86,11.42c1.86,2.3,3.67,4.59,5.43,6.9Q652.11,852.76,649.3,849.31Zm3.37,159.5q4.43,2.7,8.85,5.54Q657.1,1011.5,652.67,1008.81Zm6.34,195c-123.71-11.51-239.5-69-347.13-133.76,177.63,104.79,271.34,139.92,415,133.76Zm12.86-321.89q2.07,3.54,4,7.09Q674,885.43,671.87,881.89Zm1.66,140.34c8.77,5.9,17.6,12.11,26.5,18.52C691.13,1034.33,682.3,1028.12,673.53,1022.23Zm33.1-54.83q2.11,7.14,4.18,14.38Q708.76,974.54,706.63,967.4Zm-2.75,76.14c4.07,3,8.17,6,12.28,9C712.05,1049.48,708,1046.48,703.88,1043.54Zm60.38-494.2c20.33-81.08,60.31-157.16,119.92-218.57C824.46,392.19,784.52,468.27,764.26,549.34Zm89.1,277.6A431.59,431.59,0,0,1,832,746.47,418.19,418.19,0,0,0,857.17,837Q855.19,832,853.36,826.94ZM832,608.38a443.22,443.22,0,0,1,22.43-83.61A419.19,419.19,0,0,0,832,608.38Zm63.62,426.72a457.75,457.75,0,0,1-71.11-87.38A457.21,457.21,0,0,0,903.64,1043Q899.58,1039.1,895.58,1035.1Zm22.64,94.63c58.47-40.21,104.64-85.58,151.47-106.48C1021.21,1044,973.9,1089.53,918.22,1129.73Zm44.11-764.49-.16-.12c21.17,17.49,44.36,32.72,69.33,44.16l0,0C1007.25,397.48,984.46,381.94,962.33,365.24ZM1024,956.59a281.43,281.43,0,0,0-57.19,37h0c22.58-16.7,46-32,70.93-43.1Q1030.79,953.3,1024,956.59Zm101.65-23.48c2.12,0,4.24.1,6.36.2Q1128.8,933.16,1125.62,933.11Zm-17.5.48q8.75-.62,17.49-.48Q1116.85,933,1108.12,933.59Zm27.06-.1c2.06.14,4.11.3,6.17.49Q1138.28,933.68,1135.18,933.49Zm13.49,82.07c31.11,8.72,65.07,32.32,104.73,77.39C1214.75,1047.49,1180.55,1024,1148.67,1015.56Zm54.86-602.42c.88-.39,1.76-.8,2.65-1.22ZM1253.4,1093c39.88-45.36,74-69,105.29-77.54C1326.64,1023.69,1292.28,1047.22,1253.4,1093Zm100.71-665.12c-15.68-2.55-30.67-8.26-45.78-13.83a192.62,192.62,0,0,0,45.86,13.86Zm76.07-2.17c1.71-.38,3.42-.77,5.13-1.2Q1432.76,425.09,1430.18,425.66ZM1476,410.4l.43-.19h0Zm64,583.15a275.35,275.35,0,0,0-70.93-43.09c25,11.13,48.46,26.49,71.09,43.22Zm5.83-627c-22.17,16.66-45.06,32.08-69.47,43.66,25-11.13,48.44-26.39,69.63-43.78Zm-112.9,655c47.81,19.82,94.56,65.93,153.94,107C1530.34,1087.45,1482.39,1041.15,1433,1021.51ZM1546,366.41a430.16,430.16,0,0,1,56.77,65.28s0,0,0,0c2.61,3.69,5.13,7.43,7.64,11.19v0c3.14,4.74,6.14,9.56,9.1,14.41A415.88,415.88,0,0,0,1546,366.41Zm74.38,92.37c.26.43.5.86.76,1.27Zm.88,1.48c.34.61.7,1.19,1.06,1.79Zm2.15,3.7.3.51q-.39-.71-.81-1.41Zm54,162.43c.2,1.68.41,3.36.59,5C1677.83,629.75,1677.63,628.07,1677.42,626.39Zm-3.81-25.45q-.51-2.87-1-5.72C1672.93,597.12,1673.27,599,1673.61,600.94Zm0,0c1.52,8.44,2.75,16.94,3.81,25.45Q1675.92,613.6,1673.61,600.94Zm6.27,99.47a430.15,430.15,0,0,1-58.53,193.83,426,426,0,0,0,58.84-200.12C1680.11,696.22,1680,698.31,1679.88,700.41ZM1619.16,897.9l-.24.42c.81-1.35,1.64-2.72,2.43-4.08C1620.62,895.46,1619.89,896.69,1619.16,897.9Zm151.21-603.21c24.4,18,48.09,35.73,71.38,51C1817.18,328.15,1794,309,1770.37,294.69Zm7.31,767.4c27.47-20.22,53.93-39.72,80-55.4C1831.54,1022.36,1805.05,1041.87,1777.68,1062.09ZM1807,412.91c16.43,50.88,39.18,98.33,95,143.43C1860.86,518.08,1829.76,467.29,1807,412.91Zm116.24,482.62c36.16-5.71,69-2.19,98.29,7.18A209.41,209.41,0,0,0,1923.23,895.53ZM2005,980.07c26.16,10,52.92,29.47,80.85,61.54C2058,1009.48,2031.2,990,2005,980.07ZM1962.7,391c-3.51.13-7,.13-10.41,0,30.5,2.34,61.3-5.82,93.18-29.56C2023.32,377.28,1995.61,389.8,1962.7,391Zm42.89,440.7q-7.65,3.09-14.74,6.75c47.61-23.42,104.3-25.92,158.1-9.84C2100.64,813.55,2050.33,813.58,2005.59,831.7Zm167.23,196.41a267,267,0,0,1,20.55,38C2189.5,1056.8,2182.61,1043.4,2172.82,1028.11Zm-5.47,58.4c-117.29,68-248.76,126.57-387.07,117.27,143.41,6.16,237.29-29,414.66-133.76Q2181.17,1078.44,2167.35,1086.51ZM2192.43,604a404.79,404.79,0,0,1-67.94,17.24c45.78-6.54,90.85-22.88,129.53-47.49A351.26,351.26,0,0,1,2192.43,604Z"/><path class="cls-2" d="M2045.47,361.45c-99.23,75.75-195-7.64-275.1-66.76,30.2,96.86,55.38,194.25,131.6,261.67,94.67,87,243.52,86.92,352,17.39V475.36c-98.33,91-253,97-329.25-7.59,161.34,25.54,256.17-133.12,271.71-174.49-663.42-415.7-669.75,285.88-941.52-22.94C983.58,579.05,976.13-122.37,313.42,293.28c15.18,41,110.75,200.26,271.71,174.49-77,105.44-232.88,98.4-331.25,5.8v98.94A338.73,338.73,0,0,0,300,597c68.65,30,148.71,37.56,220,12.57,35.44-13.58,68.82-38,91.93-56.49h0c85.38-66.36,94.07-166.4,127.58-258.36-7.29,5.38-14.53,10.75-21.81,16.09-41,29.6-82.43,60.91-131.49,75.11-40.37,12.27-83.92,3.44-117.55-21.37-3.38-2.38-6.59-4.79-9.9-7.43a277.62,277.62,0,0,1-36.24-35.4c156.59-85.07,332.65-133.54,476.84-5.85-202.56,187.77-200,542.08,4.26,727.13C761.15,1161.22,627,1148.58,421,1041.61a276.74,276.74,0,0,1,36.27-35.42c3.31-2.63,6.52-5.06,9.9-7.43,29.58-21.53,67.15-31.88,103.35-24.61h0c50.08,9.78,92.37,40.27,133.3,69.36,4.08,3,8.22,6,12.33,9,7.28,5.34,14.52,10.71,21.81,16.09-7.49-19.6-13.65-39.52-19.42-59.6-7.89-27.32-15.07-54.81-25.15-81.41a305.23,305.23,0,0,0-21.55-45.71h0q-4.9-8.39-10.43-16.39h0c-34.36-48.54-75.81-77.75-130.56-107-88.47-36.51-195.23-20.14-277,31.35v98.52a268.4,268.4,0,0,1,39.17-30.17h0C338.75,829.26,394,814.11,448,819.41h0c53.38,4.74,104.34,32.3,135.61,76.12C491,877.73,400.28,936.1,351.68,1002.91c0,0,0,0,0,0q-2.1,2.75-4.11,5.46s0,0,0,0c-13.7,18.48-28.57,42.92-35.69,61.63,657.6,413.13,672.46-284.54,941.52,22.93,270.77-308.87,278,390.41,941.54-22.93-42.75-99-150-196.06-271.71-174.49,78.24-109.47,240.18-94.18,330.79-6.22v-98.8c-75.08-47.82-172.32-65.91-257.68-39.54-65.13,25.29-114.53,63.76-152.56,116.84h0c-12.56,18.56-22.5,39-30.37,59.77-.63,1.62-1.23,3.28-1.83,4.92-16.2,44.81-25.45,91.4-42.74,136.1,104-80.62,213.25-154.48,317-27-157.51,83.92-329.13,137.08-482.65,1.36,204.4-186.93,207.14-535.73,5.6-725.79,144.85-128.67,319.54-81.79,478.59,4.51A220.34,220.34,0,0,1,2045.47,361.45Zm-425.95,95.87c.93,1.58,1.88,3.15,2.81,4.73h0c101.67,169,66.24,401.28-82.15,531.62-46.21-35.52-99.82-62.26-159-60.57-47.12.57-91.82,18.68-127.8,49.54C1166,907,1052,924.33,966.79,993.56h0l-.16.13a397.46,397.46,0,0,1-79.32-95.22h0a434.42,434.42,0,0,1-55.32-152,423.53,423.53,0,0,0,19.58,75.4,442.13,442.13,0,0,1-2.46-282A423.46,423.46,0,0,0,832,608.38c15.55-93,58.53-178.45,130.21-243.26,22.17,16.74,45,32.34,69.37,44.13l0,0C1105,445.22,1193,434.56,1255,380.65a241.78,241.78,0,0,0,29.84,21.16h0c21.21,12.79,45.35,21.37,69.39,26.06,41.32,7.16,84.19-.43,122.2-17.67h0c24.46-11.6,47.42-27.08,69.63-43.78A415.88,415.88,0,0,1,1619.52,457.32Z"/><path class="cls-3" d="M2254,150.91V475.36c-98.33,91-253,97-329.25-7.59,161.34,25.54,256.17-133.12,271.71-174.49-663.42-415.7-669.75,285.88-941.52-22.94C983.58,579.05,976.13-122.37,313.42,293.28c15.18,41,110.75,200.26,271.71,174.49-77,105.44-232.88,98.4-331.25,5.8V150.91Z"/><path class="cls-4" d="M655.89,1203.5c-120.8-11.6-238.88-69.78-344-133.48,7.06-18.66,22-43.17,35.69-61.63,0,0,0,0,0,0q2-2.71,4.11-5.46s0,0,0,0C400.3,936.13,491,877.64,583.59,895.53c-31.28-43.82-82.23-71.37-135.61-76.12h0c-54-5.3-109.22,9.85-154.91,38.77h0a268.4,268.4,0,0,0-39.17,30.17v315.43H659C658,1203.7,656.93,1203.61,655.89,1203.5Zm239.69-168.4C698.52,848.36,700,500.84,899.38,315.84c-144.18-127.69-320.26-79.21-476.84,5.85a278.26,278.26,0,0,0,36.24,35.4c3.31,2.63,6.52,5.06,9.9,7.43,33.63,24.8,77.18,33.64,117.55,21.37,49.06-14.19,90.51-45.52,131.49-75.11q10.92-8,21.81-16.09C706,386.61,697.31,486.73,612,553.05h0c-23.09,18.52-56.51,43-91.93,56.49C448.69,634.53,368.63,627,300,597a338.73,338.73,0,0,1-46.1-24.46V789.83c81.77-51.49,188.53-67.86,277-31.35,54.72,29.23,96.22,58.48,130.56,107h0q5.53,8,10.43,16.39h0a305.23,305.23,0,0,1,21.55,45.71c10.08,26.6,17.26,54.09,25.15,81.41,5.77,20.07,11.93,40,19.42,59.6q-10.92-8.05-21.81-16.09c-4.11-3-8.25-6-12.33-9-40.92-29.09-83.23-59.58-133.3-69.36h0c-36.21-7.26-73.77,3.08-103.35,24.61-3.38,2.37-6.59,4.8-9.9,7.43A276.74,276.74,0,0,0,421,1041.61c206,107,340.15,119.61,482.64,1.36Q899.58,1039.1,895.58,1035.1ZM2192.43,604c-102,40-224.49,21.06-290.46-47.64-70.56-65.68-111.48-168.17-131.6-261.67,105.15,81.35,213.09,154.06,317,27-159.06-86.3-333.74-133.17-478.59-4.51,201.54,190.06,198.8,538.86-5.6,725.79,153.57,135.74,325.13,82.54,482.65-1.36-103.67-127.44-213.15-53.51-317,27,17.29-44.7,26.54-91.29,42.74-136.1.59-1.64,1.19-3.3,1.83-4.92,7.87-20.81,17.8-41.22,30.37-59.77h0C1881.56,815,1931.45,776,1996.34,751c85.36-26.37,182.6-8.28,257.68,39.54V573.75A351.26,351.26,0,0,1,2192.43,604Zm-511.94,68.86c-1.17-114.93-49.87-228-134.48-306.45-73,62-175.71,88.62-261.2,35.4h0A241.78,241.78,0,0,1,1255,380.65c-90.41,77.35-206.87,57.84-292.79-15.53C813.89,497.27,786.34,730.91,887.3,898.46h0a397.46,397.46,0,0,0,79.32,95.22l.16-.13h0c81.68-70,202.17-85.45,286.62-10.9,36-30.85,80.69-49,127.8-49.54,30.11-.5,60.09,5.9,87.89,17.34h0a275.7,275.7,0,0,1,71.09,43.22C1630,913.2,1682.35,793.45,1680.49,672.86ZM2149,828.63c-81.45-28.22-176.83-1.16-225.79,66.9C2045,874,2152.22,970.94,2194.94,1070c-106.55,64.07-221.9,122.12-347.14,133.76H2254V889.31C2222.57,861,2186.39,840.29,2149,828.63Z"/><path class="cls-5" d="M659,1203.78H253.88V888.35a268.4,268.4,0,0,1,39.17-30.17h0C338.75,829.26,394,814.12,448,819.41h0c53.38,4.75,104.34,32.3,135.61,76.12C491,877.75,400.17,936.05,351.68,1002.91c0,0,0,0,0,0q-2.12,2.75-4.11,5.46s0,0,0,0c-13.7,18.48-28.57,42.92-35.69,61.63C419.37,1134.75,535,1192.35,659,1203.78Z"/><path class="cls-5" d="M732.54,1203.78a410.41,410.41,0,0,1-73.53,0Z"/><path class="cls-5" d="M1774.27,1203.78H732.54C948.3,1206.86,1066.27,862,1253.4,1093,1441,862,1557.39,1206.35,1774.27,1203.78Z"/><path class="cls-5" d="M1847.8,1203.78a411.35,411.35,0,0,1-73.53,0Z"/><path class="cls-5" d="M2254,889.31v314.47H1847.8c125.25-11.64,240.58-69.69,347.14-133.76-42.68-99-150.06-196.16-271.71-174.49C2000.82,787,2163.77,801.46,2254,889.31Z"/><path class="cls-6" d="M1774.27,1203.78a411.34,411.34,0,0,0,73.53,0Zm0,0a411.34,411.34,0,0,0,73.53,0Zm-1115.26,0a410.41,410.41,0,0,0,73.53,0Zm1115.26,0a411.34,411.34,0,0,0,73.53,0Zm-1115.26,0a410.41,410.41,0,0,0,73.53,0Zm1115.26,0a411.34,411.34,0,0,0,73.53,0Zm0,0a411.34,411.34,0,0,0,73.53,0Zm-1115.26,0a410.41,410.41,0,0,0,73.53,0Zm1115.26,0a411.34,411.34,0,0,0,73.53,0Zm0,0a411.34,411.34,0,0,0,73.53,0Z"/><path class="cls-6" d="M1672.56,595.22a423.21,423.21,0,0,0-50.23-133.16h0c-3.81-6.47-7.77-12.87-11.91-19.14v0c-2.51-3.77-5-7.5-7.64-11.19,0,0,0,0,0,0A430.16,430.16,0,0,0,1546,366.41l-.16.12c69.25,64.73,116.55,154.11,130.09,248.86C1675,608.63,1673.84,601.9,1672.56,595.22Zm-18.42,229.65A428.22,428.22,0,0,1,1540,993.56l.17.12c68.56-61.85,116.34-146.42,132.91-237.32A422.51,422.51,0,0,1,1654.14,824.87Zm-692-459.75C892.55,430,846.89,515.36,832,608.38c14.87-93,62.28-180,130.37-243.14ZM851.58,821.91A422.08,422.08,0,0,1,832,746.47c15.22,94.95,62.79,182.09,134.64,247.22l.16-.13h0A428.2,428.2,0,0,1,851.58,821.91Z"/><path class="cls-3" d="M1680.09,660.38a425.06,425.06,0,0,0-69.67-217.47v0q-3.74-5.65-7.64-11.19s0,0,0,0A426,426,0,0,0,1546,366.41c-22.21,16.7-45.17,32.18-69.63,43.78h0c168.18,133.17,164.32,411.64-7.31,540.24h0c25,11.13,48.46,26.49,71.09,43.22C1633.36,910.26,1685.72,785.11,1680.09,660.38Zm-672.76,263C863.05,785.7,875.14,532.81,1031.54,409.25c-24.35-11.79-47.2-27.39-69.37-44.13C813.89,497.27,786.34,730.91,887.3,898.46h0a397.46,397.46,0,0,0,79.32,95.22l.16-.13h0c22.58-16.7,46-32,70.93-43.1A352.22,352.22,0,0,1,1007.33,923.38Z"/><path class="cls-5" d="M1443.6,487.18a268.32,268.32,0,0,0-89.4-59.31c-15.7-2.6-30.74-8.28-45.89-13.87-36.49-6.58-78.76-9.93-113.81,3-195.68,38.59-286.94,295.87-131.3,450.53C1322.18,1111.3,1687.43,746.05,1443.6,487.18Zm-55.87,324.47C1204.82,983.84,946.88,725.86,1119.07,543,1302,370.86,1559.94,628.85,1387.73,811.65Z"/><path class="cls-3" d="M1331.86,598.91C1225,498.33,1074.37,649,1174.94,755.79,1281.78,856.35,1432.44,705.69,1331.86,598.91Zm-55.87,101c-30.36,29.27-74.46-14.8-45.18-45.16C1261.17,625.47,1305.28,669.59,1276,699.93Z"/></svg>